<?xml version="1.0" standalone="no"?>
<!DOCTYPE svg PUBLIC "-//W3C//DTD SVG 20010904//EN"
 "http://www.w3.org/TR/2001/REC-SVG-20010904/DTD/svg10.dtd">
<svg version="1.0" xmlns="http://www.w3.org/2000/svg"
 width="512.000000pt" height="512.000000pt" viewBox="0 0 512.000000 512.000000"
 preserveAspectRatio="xMidYMid meet">
<metadata>
Created by potrace 1.16, written by Peter Selinger 2001-2019
</metadata>
<g transform="translate(0.000000,512.000000) scale(0.100000,-0.100000)"
fill="royalblue" >
<path d="M1395 5110 c-61 -11 -151 -46 -224 -86 l-66 -36 55 58 c50 54 53 59
33 62 -13 2 -35 -6 -50 -17 -16 -11 -277 -269 -580 -573 -459 -459 -553 -558
-553 -581 0 -15 3 -27 7 -27 4 0 205 197 446 438 263 261 428 420 412 394 -14
-24 -40 -78 -57 -120 l-30 -77 -389 -391 c-319 -320 -389 -395 -389 -417 0
-15 3 -27 7 -27 4 0 175 168 381 373 l374 372 -7 -70 -7 -70 -374 -376 c-307
-307 -374 -380 -374 -402 0 -15 3 -27 7 -27 4 0 173 165 375 367 l368 368 0
-65 0 -65 -187 -186 c-104 -102 -204 -197 -223 -209 -70 -47 -147 -120 -191
-181 -24 -34 -68 -89 -97 -122 -31 -35 -52 -69 -52 -83 0 -15 5 -22 13 -18 11
4 10 -11 -5 -68 -18 -70 -18 -131 -14 -1353 3 -704 5 -1303 6 -1332 0 -40 4
-51 15 -47 9 4 20 -9 33 -38 l19 -43 -34 -39 c-36 -43 -47 -94 -15 -77 9 5 28
21 41 35 14 14 28 26 32 26 4 0 17 -16 29 -35 l22 -36 -71 -74 c-50 -53 -71
-83 -71 -100 0 -35 17 -24 105 64 l69 71 33 -32 33 -32 -95 -97 c-52 -53 -95
-99 -95 -103 0 -3 11 -6 25 -6 19 0 51 24 115 86 l89 86 36 -27 35 -28 -50
-53 c-27 -29 -50 -55 -50 -58 0 -3 11 -6 24 -6 14 0 44 18 74 45 l51 46 41
-21 c40 -20 40 -21 24 -45 -16 -24 -15 -25 5 -25 12 0 32 7 45 15 21 14 30 14
87 0 56 -13 264 -15 1573 -15 l1510 0 85 26 c48 14 99 33 116 42 l30 15 -35
-39 c-32 -37 -33 -39 -12 -42 12 -2 34 6 49 17 16 11 290 282 610 603 484 485
583 588 583 611 0 15 -3 27 -7 27 -4 0 -194 -186 -422 -412 -227 -227 -410
-404 -406 -393 5 11 20 55 35 98 l26 78 387 387 c318 319 387 393 387 415 0
15 -3 27 -7 27 -4 0 -176 -169 -383 -375 l-376 -376 4 68 4 68 379 381 c311
312 379 385 379 407 0 15 -3 27 -7 27 -4 0 -175 -168 -380 -372 l-373 -373 0
65 0 65 147 147 c82 80 164 154 183 163 65 33 151 96 207 153 51 52 153 195
153 215 0 5 16 27 35 50 33 38 50 97 23 81 -8 -5 -9 -1 -2 17 5 13 10 594 11
1297 3 1116 1 1280 -12 1339 -14 59 -14 68 0 89 8 13 15 33 15 45 0 20 -1 21
-25 5 -24 -16 -25 -16 -45 24 l-21 41 46 51 c27 30 45 60 45 74 0 13 -3 24 -6
24 -3 0 -29 -23 -58 -50 l-53 -50 -28 35 -27 36 86 89 c62 64 86 96 86 115 0
14 -3 25 -6 25 -4 0 -50 -43 -103 -95 l-97 -95 -32 33 -32 33 71 69 c88 88 99
105 64 105 -17 0 -47 -21 -100 -71 l-74 -71 -36 22 c-19 12 -35 25 -35 29 0 4
12 18 26 32 14 13 30 32 35 42 17 31 -34 20 -77 -16 l-39 -34 -43 19 c-29 13
-42 24 -38 33 6 18 204 15 -1634 19 -844 2 -1553 0 -1575 -4z m238 -272 c15
-6 27 -13 27 -17 0 -3 -76 -82 -169 -175 l-168 -168 -18 47 -18 46 143 144
c97 97 148 142 159 138 9 -3 28 -9 44 -15z m547 -103 c-68 -68 -126 -123 -128
-120 -2 2 3 29 12 60 25 83 91 150 176 176 70 21 63 7 -60 -116z m239 94 l34
-21 -173 -173 c-160 -161 -175 -173 -187 -155 -40 57 -42 54 120 218 84 83
156 152 162 152 5 0 25 -9 44 -21z m-683 -75 l27 -35 -164 -165 c-90 -90 -168
-164 -174 -164 -5 0 -23 11 -40 24 l-30 25 175 175 c96 97 176 176 177 176 1
0 14 -16 29 -36z m783 -22 l20 -39 -157 -156 c-87 -86 -162 -157 -167 -157 -6
0 -25 9 -44 21 l-34 21 174 174 c95 96 177 174 181 174 4 0 16 -17 27 -38z
m-734 -150 c-6 -41 -17 -57 -89 -130 l-82 -84 -62 -5 c-34 -3 -62 -2 -62 3 0
5 64 73 142 151 154 154 167 160 153 65z m744 -72 c-36 -84 -135 -150 -223
-150 -29 0 -24 7 104 135 l135 136 3 -35 c2 -20 -6 -56 -19 -86z m-1722 -548
c-116 -117 -118 -118 -181 -130 -35 -6 -72 -15 -82 -18 -11 -4 42 55 116 130
l135 136 65 0 65 0 -118 -118z m203 3 l-115 -115 -65 0 -65 0 115 115 115 115
65 0 65 0 -115 -115z m200 0 l-115 -115 -65 0 -65 0 115 115 115 115 65 0 65
0 -115 -115z m200 0 l-115 -115 -65 0 -65 0 115 115 115 115 65 0 65 0 -115
-115z m200 0 l-115 -115 -65 0 -65 0 115 115 115 115 65 0 65 0 -115 -115z
m200 0 l-115 -115 -65 0 -65 0 115 115 115 115 65 0 65 0 -115 -115z m200 0
l-115 -115 -65 0 -65 0 115 115 115 115 65 0 65 0 -115 -115z m200 0 l-115
-115 -65 0 -65 0 115 115 115 115 65 0 65 0 -115 -115z m200 0 l-115 -115 -65
0 -65 0 115 115 115 115 65 0 65 0 -115 -115z m200 0 l-115 -115 -65 0 -65 0
115 115 115 115 65 0 65 0 -115 -115z m200 0 l-115 -115 -65 0 -65 0 115 115
115 115 65 0 65 0 -115 -115z m200 0 l-115 -115 -65 0 -65 0 115 115 115 115
65 0 65 0 -115 -115z m200 0 l-115 -115 -65 0 -65 0 115 115 115 115 65 0 65
0 -115 -115z m200 0 l-115 -115 -65 0 -65 0 115 115 115 115 65 0 65 0 -115
-115z m200 0 l-115 -115 -65 0 -65 0 115 115 115 115 65 0 65 0 -115 -115z
m195 -4 l-120 -119 -59 5 -58 6 113 113 114 114 65 0 65 0 -120 -119z m180
-21 l-140 -140 -49 16 -48 17 123 123 124 124 65 0 65 0 -140 -140z m168 -32
l-172 -172 -40 19 c-23 10 -41 21 -41 24 0 3 66 72 147 153 l148 148 65 0 65
0 -172 -172z m319 134 c4 -4 -79 -94 -185 -200 l-193 -193 -36 28 -37 28 186
187 187 187 35 -15 c20 -8 39 -18 43 -22z m79 -78 l22 -36 -191 -191 -192
-192 -29 35 -30 35 192 193 c106 105 195 192 199 192 3 0 16 -16 29 -36z m49
-152 l0 -57 -165 -165 c-90 -90 -166 -162 -168 -160 -2 3 -13 21 -25 40 l-21
35 182 183 c100 100 185 182 189 182 5 0 8 -26 8 -58z m-137 -394 l-138 -138
-16 47 -17 48 152 153 151 152 3 -62 3 -62 -138 -138z m-3646 158 c1 -1 -65
-69 -148 -151 l-151 -150 4 68 4 68 81 81 c64 64 89 82 119 88 32 6 80 3 91
-4z m782 -2 c10 -3 -38 -58 -139 -159 -84 -85 -157 -152 -162 -149 -4 3 -8 29
-8 57 l0 52 103 102 c113 112 131 121 206 97z m-661 -56 c9 -11 -24 -49 -163
-188 -171 -171 -174 -174 -194 -156 -47 42 -43 48 130 222 161 161 163 163
189 149 15 -8 32 -20 38 -27z m788 -20 c4 -5 -71 -88 -167 -184 l-173 -174
-33 32 -33 32 172 173 172 172 27 -20 c16 -11 31 -25 35 -31z m2752 -265
l-123 -123 -7 57 -7 58 127 128 127 127 3 -62 3 -62 -123 -123z m-3479 196 c6
-18 11 -39 11 -48 0 -9 -62 -79 -139 -155 l-139 -138 -38 12 c-22 7 -43 15
-48 18 -8 4 322 342 335 342 4 0 12 -14 18 -31z m781 -45 l9 -39 -127 -127
c-134 -135 -145 -141 -208 -118 l-28 11 164 164 c92 92 168 161 173 156 5 -5
13 -26 17 -47z m2701 -348 l-121 -121 0 65 0 65 118 118 117 117 3 -62 3 -62
-120 -120z m0 -200 l-121 -121 0 65 0 65 118 118 117 117 3 -62 3 -62 -120
-120z m0 -200 l-121 -121 0 65 0 65 118 118 117 117 3 -62 3 -62 -120 -120z
m-3631 171 c0 -1 -74 -76 -165 -167 l-165 -165 0 64 0 64 93 94 c50 52 101 99
112 103 18 8 125 14 125 7z m-60 -262 l-265 -265 -3 62 -3 62 203 203 203 203
65 0 65 0 -265 -265z m100 -100 l-365 -365 -3 62 -3 62 303 303 303 303 65 0
65 0 -365 -365z m100 -100 l-465 -465 -3 62 -3 62 403 403 403 403 65 0 65 0
-465 -465z m100 -100 l-565 -565 -3 62 -3 62 503 503 503 503 65 0 65 0 -565
-565z m551 351 c-160 -160 -222 -216 -245 -220 -45 -9 -612 -576 -628 -627 -7
-26 -45 -72 -129 -155 l-119 -119 0 65 0 65 602 602 603 603 65 0 65 0 -214
-214z m167 -33 l-246 -246 -35 29 -35 29 217 218 216 217 65 0 65 0 -247 -247z
m-120 -320 c-539 -539 -569 -567 -585 -550 -16 16 -5 29 225 260 206 207 242
247 242 272 0 26 40 70 277 307 l278 278 65 0 65 0 -567 -567z m150 -50 l-618
-618 -32 33 -33 32 585 585 585 585 65 0 65 0 -617 -617z m150 -50 l-668 -668
-32 33 -33 32 635 635 635 635 65 0 65 0 -667 -667z m150 -50 l-718 -718 -32
33 -33 32 685 685 685 685 65 0 65 0 -717 -717z m693 493 c-206 -206 -226
-224 -248 -215 -13 5 -39 9 -56 9 -30 0 -20 12 183 215 l215 215 65 0 65 0
-224 -224z m129 -71 l-295 -295 -7 46 c-4 25 -9 49 -13 52 -3 3 104 115 237
249 l243 243 65 0 65 0 -295 -295z m270 70 c-183 -184 -229 -225 -245 -219
-11 3 -35 8 -54 11 l-33 5 213 214 214 214 65 0 65 0 -225 -225z m407 211 c1
-1 -119 -123 -267 -271 l-270 -270 -32 33 -33 32 245 245 245 246 55 -7 c30
-4 56 -7 57 -8z m97 -52 l29 -26 -281 -281 -282 -282 -32 33 -33 32 275 275
c151 151 279 275 285 275 5 0 23 -12 39 -26z m747 -308 l-121 -121 0 65 0 65
118 118 117 117 3 -62 3 -62 -120 -120z m-664 189 l13 -39 -265 -266 -265
-265 -32 33 -33 32 275 275 c151 151 279 274 284 272 5 -2 15 -21 23 -42z
m-201 -454 l-216 -216 -32 33 -33 32 245 245 245 245 3 -62 3 -62 -215 -215z
m865 65 l-121 -121 0 65 0 65 118 118 117 117 3 -62 3 -62 -120 -120z m-815
-215 l-166 -166 -32 33 -33 32 195 195 195 195 3 -62 3 -62 -165 -165z m815
15 l-121 -121 0 65 0 65 118 118 117 117 3 -62 3 -62 -120 -120z m-2134 126
l-42 -102 -392 -392 -393 -393 -32 33 -33 32 465 465 c255 255 465 463 467
462 1 -2 -17 -49 -40 -105z m451 22 c10 -18 -3 -35 -134 -165 l-145 -144 20
50 c61 154 64 160 150 248 85 86 86 87 92 60 3 -16 11 -37 17 -49z m-150 -381
c-144 -144 -263 -261 -265 -259 -2 1 16 47 39 102 l41 99 191 192 190 193 33
-32 33 -32 -262 -263z m1060 60 c-113 -113 -123 -121 -131 -101 -4 13 -15 31
-24 41 -16 17 -9 26 128 163 l144 144 3 -62 3 -62 -123 -123z m773 -27 l-121
-121 0 65 0 65 118 118 117 117 3 -62 3 -62 -120 -120z m-1503 161 l32 -33
-390 -389 -390 -390 46 110 46 110 311 313 c172 171 312 312 312 312 1 0 15
-15 33 -33z m-744 -104 c-8 -21 -28 -69 -45 -108 -27 -67 -43 -84 -322 -363
l-294 -294 -6 59 -6 58 342 343 c188 188 343 342 345 342 1 0 -5 -17 -14 -37z
m199 -705 l-678 -678 -65 0 -65 0 710 710 710 710 33 -32 33 -32 -678 -678z
m760 -40 l-638 -638 -65 0 -65 0 278 273 c376 369 845 838 997 997 l125 131 3
-62 3 -63 -638 -638z m1288 488 l-121 -121 0 65 0 65 118 118 117 117 3 -62 3
-62 -120 -120z m-1898 -498 l-628 -628 -65 0 -65 0 660 660 660 660 33 -32 33
-32 -628 -628z m450 339 c-127 -127 -236 -242 -242 -254 -6 -12 -11 -37 -11
-55 0 -30 -28 -61 -312 -345 l-313 -313 -65 0 -65 0 610 610 c405 405 613 606
619 600 7 -7 -67 -88 -221 -243z m260 -429 l-538 -538 -65 0 -65 0 600 600
600 600 3 -62 3 -62 -538 -538z m1188 388 l-121 -121 0 65 0 65 118 118 117
117 3 -62 3 -62 -120 -120z m-3679 180 l27 -32 -155 -155 -154 -154 0 65 0 65
122 122 c68 68 125 123 128 122 3 0 17 -15 32 -33z m1262 -133 l-45 -108 -432
-432 -432 -433 -65 0 -65 0 540 540 c297 297 541 540 542 540 1 0 -18 -48 -43
-107z m-1336 -200 l-203 -203 -3 62 -3 62 173 173 172 173 33 -32 33 -32 -202
-203z m2665 -335 l-438 -438 -65 0 -65 0 500 500 500 500 3 -62 3 -62 -438
-438z m1088 288 l-121 -121 0 65 0 65 118 118 117 117 3 -62 3 -62 -120 -120z
m-3703 -103 l-253 -253 -3 62 -3 62 223 223 222 223 33 -32 33 -32 -252 -253z
m58 -142 c-163 -162 -298 -292 -302 -289 -3 4 -9 28 -12 54 l-5 46 274 274
273 274 33 -32 34 -32 -295 -295z m2657 -143 l-338 -338 -65 0 -65 0 400 400
400 400 3 -62 3 -62 -338 -338z m-2568 32 l-306 -305 -31 34 -30 34 303 303
303 304 33 -32 34 -32 -306 -306z m1035 349 c-6 -11 -10 -43 -9 -70 l3 -50
-299 -299 -300 -300 -65 0 -65 0 370 370 c203 204 371 370 373 370 1 0 -2 -9
-8 -21z m-914 -428 c-279 -279 -284 -284 -317 -277 -77 15 -83 7 236 326 l299
300 33 -32 34 -32 -285 -285z m2547 -53 l-238 -238 -65 0 -65 0 300 300 300
300 3 -62 3 -62 -238 -238z m-720 292 c7 0 -107 -119 -253 -265 l-265 -265
-65 0 -65 0 289 289 290 290 29 -25 c16 -13 34 -24 40 -24z m-811 0 c18 0 -36
-59 -242 -265 l-265 -265 -65 0 -65 0 279 279 280 280 27 -15 c16 -8 38 -14
51 -14z m-617 0 l40 0 -265 -265 -265 -265 -65 0 -65 0 270 270 c213 214 274
270 290 265 11 -2 38 -5 60 -5z m2248 -392 l-138 -138 -65 0 -65 0 200 200
200 200 3 -62 3 -62 -138 -138z"/>
<path d="M203 4958 c-174 -172 -196 -198 -191 -231 3 -19 32 5 192 163 103
102 192 193 197 203 8 14 5 17 -17 17 -21 0 -60 -33 -181 -152z"/>
<path d="M303 4858 c-140 -139 -264 -265 -275 -281 -10 -15 -18 -37 -16 -50 3
-18 49 23 292 263 158 157 292 293 297 303 8 14 5 17 -17 17 -22 0 -75 -47
-281 -252z"/>
<path d="M402 4758 c-194 -194 -362 -365 -373 -381 -11 -15 -19 -37 -17 -50 4
-18 67 40 392 363 213 212 392 393 397 403 8 14 5 17 -18 17 -22 0 -89 -62
-381 -352z"/>
<path d="M502 4658 c-249 -249 -462 -465 -473 -481 -11 -15 -19 -37 -17 -50 4
-18 84 57 492 463 268 267 492 493 497 503 8 14 5 17 -18 17 -22 0 -104 -76
-481 -452z"/>
<path d="M4596 550 c-284 -283 -522 -523 -527 -533 -8 -14 -5 -17 18 -17 23 0
108 81 511 483 266 265 492 494 503 510 11 15 19 37 17 50 -4 18 -89 -62 -522
-493z"/>
<path d="M4696 450 c-229 -228 -422 -423 -427 -432 -8 -15 -5 -18 18 -18 22 0
93 66 411 383 211 210 392 394 403 410 11 15 19 37 17 50 -4 18 -72 -45 -422
-393z"/>
<path d="M4796 350 c-174 -173 -322 -323 -327 -332 -8 -15 -5 -18 17 -18 23 0
80 52 312 282 156 156 293 295 303 311 11 15 19 37 17 50 -4 18 -54 -28 -322
-293z"/>
<path d="M4896 250 c-119 -118 -222 -223 -227 -232 -8 -15 -5 -18 17 -18 21 0
65 37 211 183 205 202 226 227 221 260 -3 19 -37 -11 -222 -193z"/>
<path d="M4996 150 c-136 -133 -149 -150 -111 -150 18 0 49 23 111 82 102 98
127 130 122 161 -3 19 -19 7 -122 -93z"/>
</g>
</svg>
