<svg xmlns="http://www.w3.org/2000/svg" xmlns:xlink="http://www.w3.org/1999/xlink" viewBox="0 0 20 24" version="1.1" x="0px" y="0px"><title>stack</title><g stroke="none" stroke-width="1" fill="none" fill-rule="evenodd"><g transform="translate(-20.000000, -260.000000)" fill="#dad9d9" fill-rule="nonzero"><path d="M39.81164,273.415679 L39.8741573,273.514357 C40.1232124,273.962656 39.9910199,274.519615 39.5843209,274.81164 L39.4856429,274.874157 L30.4856429,279.874157 C30.2213732,280.020974 29.9071708,280.039326 29.6304179,279.929213 L29.5143571,279.874157 L20.5143571,274.874157 C20.0315733,274.605944 19.8576295,273.997141 20.1258427,273.514357 C20.3748978,273.066058 20.917625,272.884054 21.3804305,273.075088 L21.4856429,273.125843 L29.999,277.855 L38.5143571,273.125843 C38.9626562,272.876788 39.5196151,273.00898 39.81164,273.415679 Z M39.81164,269.415679 L39.8741573,269.514357 C40.1232124,269.962656 39.9910199,270.519615 39.5843209,270.81164 L39.4856429,270.874157 L30.4856429,275.874157 C30.2213732,276.020974 29.9071708,276.039326 29.6304179,275.929213 L29.5143571,275.874157 L20.5143571,270.874157 C20.0315733,270.605944 19.8576295,269.997141 20.1258427,269.514357 C20.3748978,269.066058 20.917625,268.884054 21.3804305,269.075088 L21.4856429,269.125843 L29.999,273.855 L38.5143571,269.125843 C38.9626562,268.876788 39.5196151,269.00898 39.81164,269.415679 Z M29.5143571,260.125843 C29.8163796,259.958052 30.1836204,259.958052 30.4856429,260.125843 L30.4856429,260.125843 L39.4856429,265.125843 C40.1714524,265.506848 40.1714524,266.493152 39.4856429,266.874157 L39.4856429,266.874157 L30.4856429,271.874157 C30.1836204,272.041948 29.8163796,272.041948 29.5143571,271.874157 L29.5143571,271.874157 L20.5143571,266.874157 C19.8285476,266.493152 19.8285476,265.506848 20.5143571,265.125843 L20.5143571,265.125843 Z M30,262.144 L23.059,266 L29.999,269.855 L36.94,266 L30,262.144 Z"/></g></g><text x="0" y="35" fill="#000000" font-size="5px" font-weight="bold" font-family="'Helvetica Neue', Helvetica, Arial-Unicode, Arial, Sans-serif">Created by Danny Amacher</text><text x="0" y="40" fill="#000000" font-size="5px" font-weight="bold" font-family="'Helvetica Neue', Helvetica, Arial-Unicode, Arial, Sans-serif">from the Noun Project</text></svg>
